<?xml version="1.0" encoding="UTF-8"?>
<svg width="77px" height="51px" viewBox="0 0 77 51" version="1.1" xmlns="http://www.w3.org/2000/svg" xmlns:xlink="http://www.w3.org/1999/xlink">
    <!-- Generator: Sketch 50.2 (55047) - http://www.bohemiancoding.com/sketch -->
    <title>1 2 Бухгалтерия предприятия ПРО</title>
    <desc>Created with Sketch.</desc>
    <defs></defs>
    <g id="Page-1" stroke="none" stroke-width="1" fill="none" fill-rule="evenodd">
        <g id="Artboard" transform="translate(-2003.000000, -461.000000)" stroke="#636D90" stroke-width="3">
            <g id="1-2-Бухгалтерия-предприятия-ПРО" transform="translate(2003.000000, 463.000000)">
                <path d="M55.3006129,17.4438229 L49.9973396,23.78964 L26.7004346,23.78964 L21.3786016,17.4438229 L4,17.4438229 C2.61928813,17.4438229 1.5,18.563111 1.5,19.9438229 L1.5,45 C1.5,46.3807119 2.61928813,47.5 4,47.5 L73,47.5 C74.3807119,47.5 75.5,46.3807119 75.5,45 L75.5,19.9438229 C75.5,18.563111 74.3807119,17.4438229 73,17.4438229 L55.3006129,17.4438229 Z" id="Rectangle"></path>
                <rect id="Rectangle-6" x="28.5" y="32.5" width="20" height="6" rx="3"></rect>
                <path d="M8,17 L8,11.6666667 C8,11.2984768 9.60650766,11 11.5882353,11 L65.4117647,11 C67.3934923,11 69,11.2984768 69,11.6666667 L69,17" id="Rectangle-5" stroke-linecap="round" stroke-linejoin="round"></path>
                <path d="M13,9 L13,5.44444444 C13,5.19898456 14.3431458,5 16,5 L61,5 C62.6568542,5 64,5.19898456 64,5.44444444 L64,9" id="Rectangle-5" stroke-linecap="round" stroke-linejoin="round"></path>
                <path d="M18,3 L18,0.333333333 C18,0.149238417 19.0797838,0 20.4117647,0 L56.5882353,0 C57.9202162,0 59,0.149238417 59,0.333333333 L59,3" id="Rectangle-5" stroke-linecap="round" stroke-linejoin="round"></path>
            </g>
        </g>
    </g>
</svg>