<?xml version="1.0" encoding="UTF-8"?>
<svg width="22px" height="40px" viewBox="0 0 22 40" version="1.1" xmlns="http://www.w3.org/2000/svg" xmlns:xlink="http://www.w3.org/1999/xlink">
    <!-- Generator: Sketch 48.1 (47250) - http://www.bohemiancoding.com/sketch -->
    <title>social fb</title>
    <desc>Created with Sketch.</desc>
    <defs></defs>
    <g id="Page-1" stroke="none" stroke-width="1" fill="none" fill-rule="evenodd">
        <path d="M21.1715446,0.00832266991 L15.8947449,0 C9.96644153,0 6.13531144,3.86379951 6.13531144,9.84405397 L6.13531144,14.382822 L0.829725413,14.382822 C0.371259789,14.382822 0,14.7481872 0,15.1988598 L0,21.7750174 C0,22.22569 0.371683119,22.5906391 0.829725413,22.5906391 L6.13531144,22.5906391 L6.13531144,39.1843783 C6.13531144,39.6350509 6.50657123,40 6.96503685,40 L13.8873174,40 C14.3457831,40 14.7170429,39.6346348 14.7170429,39.1843783 L14.7170429,22.5906391 L20.9205103,22.5906391 C21.3789759,22.5906391 21.7502357,22.22569 21.7502357,21.7750174 L21.7527757,15.1988598 C21.7527757,14.9824704 21.6651465,14.7752359 21.5097847,14.6220988 C21.3544228,14.4689616 21.1427582,14.382822 20.922627,14.382822 L14.7170429,14.382822 L14.7170429,10.5352517 C14.7170429,8.68595445 15.1653486,7.74715729 17.6160018,7.74715729 L21.1706979,7.74590889 C21.6287402,7.74590889 22,7.38054368 22,6.93028724 L22,0.823944321 C22,0.374104013 21.6291635,0.0091549369 21.1715446,0.00832266991 Z" id="social-fb" fill="#0080ff" fill-rule="nonzero"></path>
    </g>
</svg>