<?xml version="1.0" encoding="UTF-8"?>
<svg width="93px" height="78px" viewBox="0 0 93 78" version="1.1" xmlns="http://www.w3.org/2000/svg" xmlns:xlink="http://www.w3.org/1999/xlink">
    <!-- Generator: Sketch 48.1 (47250) - http://www.bohemiancoding.com/sketch -->
    <title>imc logo</title>
    <desc>Created with Sketch.</desc>
    <defs></defs>
    <g id="Page-1" stroke="none" stroke-width="1" fill="none" fill-rule="evenodd">
        <g id="imc-logo">
            <rect id="Rectangle" fill="#FAD043" x="7.94871795" y="40.5384615" width="5.56410256" height="2.78205128" rx="1.39102564"></rect>
            <circle id="Oval" fill="#1B4BFF" cx="89.6217949" cy="3.37820513" r="3.37820513"></circle>
            <circle id="Oval" fill="#FAD043" cx="66.1730769" cy="74.5192308" r="3.37820513"></circle>
            <path d="M5.56410256,36.5641026 C4.46661364,36.5641026 3.57692308,37.4537931 3.57692308,38.5512821 L3.57692308,44.9102564 C3.57692308,46.0077453 4.46661364,46.8974359 5.56410256,46.8974359 L41.7307692,46.8974359 C42.8282582,46.8974359 43.7179487,46.0077453 43.7179487,44.9102564 L43.7179487,38.5512821 C43.7179487,37.4537931 42.8282582,36.5641026 41.7307692,36.5641026 L5.56410256,36.5641026 Z M5.56410256,32.9871795 L41.7307692,32.9871795 C44.8037382,32.9871795 47.2948718,35.4783131 47.2948718,38.5512821 L47.2948718,44.9102564 C47.2948718,47.9832254 44.8037382,50.474359 41.7307692,50.474359 L5.56410256,50.474359 C2.49113357,50.474359 0,47.9832254 0,44.9102564 L0,38.5512821 C0,35.4783131 2.49113357,32.9871795 5.56410256,32.9871795 Z" id="Rectangle-2" fill="#1B4BFF" fill-rule="nonzero"></path>
            <rect id="Rectangle" fill="#1B4BFF" x="16.6923077" y="40.5384615" width="5.56410256" height="2.78205128" rx="1.39102564"></rect>
            <rect id="Rectangle" fill="#FAD043" x="25.0384615" y="40.5384615" width="5.56410256" height="2.78205128" rx="1.39102564"></rect>
            <rect id="Rectangle" fill="#1B4BFF" x="33.7820513" y="40.5384615" width="5.56410256" height="2.78205128" rx="1.39102564"></rect>
            <path d="M9.10058042,41.8657042 L12.2673302,42.1500189 C11.1121248,55.0169075 21.2202558,62.2022763 43.5109346,63.6896267 C54.4893177,64.3348333 61.2509733,66.0500013 64.7697061,68.6459254 C67.1641359,70.4124017 67.8312891,72.2006615 67.7471373,74.3809563 C67.7411314,74.5365648 67.7406284,74.5517121 67.7406284,74.5798875 L64.5611413,74.5798875 C64.5611413,74.489914 64.5615343,74.4780761 64.5700157,74.2583305 C64.6168733,73.0442934 64.3286038,72.2716062 62.8821421,71.2044877 C59.9688806,69.0552464 53.7428026,67.4759335 43.3118282,66.8628485 C19.461146,65.2714601 7.74680381,56.9443154 9.10058042,41.8657042 Z" id="Path-2" fill="#FAD043" fill-rule="nonzero"></path>
            <path d="M38.0552695,41.6681648 L34.8913637,41.982551 C33.492971,27.9094702 37.4825724,18.3397175 46.9215141,13.6410499 C51.1942368,11.5141056 56.3761187,10.9238632 65.399068,10.9387425 C66.1396501,10.9399638 66.7412744,10.9432386 68.051668,10.9520631 C76.1313773,11.0064738 79.395554,10.8493728 82.5357315,9.99457245 C86.2743913,8.97685687 88.0102504,7.12186277 88.072437,3.73354702 L91.2513888,3.79189106 C91.1608781,8.72348735 88.3754273,11.7001084 83.3708442,13.062426 C79.8360032,14.0246593 76.4398824,14.1881107 68.030257,14.1314782 C66.7252126,14.1226898 66.1272534,14.1194348 65.3938248,14.1182254 C56.861927,14.1041558 52.0174335,14.6559679 48.3384032,16.4873746 C40.2245116,20.5264376 36.7763516,28.7974487 38.0552695,41.6681648 Z" id="Path-3" fill="#1B4BFF" fill-rule="nonzero"></path>
        </g>
    </g>
</svg>