<?xml version="1.0" encoding="UTF-8"?>
<svg width="9px" height="16px" viewBox="0 0 9 16" version="1.1" xmlns="http://www.w3.org/2000/svg" xmlns:xlink="http://www.w3.org/1999/xlink">
    <!-- Generator: Sketch 48.1 (47250) - http://www.bohemiancoding.com/sketch -->
    <title>imc right-arrow</title>
    <desc>Created with Sketch.</desc>
    <defs></defs>
    <g id="Page-1" stroke="none" stroke-width="1" fill="none" fill-rule="evenodd">
        <g id="imc-right-arrow" fill="#FAD043" fill-rule="nonzero">
            <path d="M8.74173103,7.03874483 L1.9467931,0.243931034 C1.78963448,0.0866482759 1.57984138,0 1.35614483,0 C1.13244828,0 0.922655172,0.0866482759 0.765496552,0.243931034 L0.265096552,0.744206897 C-0.0605172414,1.0701931 -0.0605172414,1.60001379 0.265096552,1.92550345 L5.97097241,7.63137931 L0.258765517,13.3435862 C0.101606897,13.500869 0.0148344828,13.7105379 0.0148344828,13.9341103 C0.0148344828,14.157931 0.101606897,14.3676 0.258765517,14.5250069 L0.759165517,15.0251586 C0.916448276,15.1824414 1.12611724,15.2690897 1.34981379,15.2690897 C1.57351034,15.2690897 1.78330345,15.1824414 1.94046207,15.0251586 L8.74173103,8.22413793 C8.89926207,8.06635862 8.98578621,7.85569655 8.98528966,7.63175172 C8.98578621,7.40693793 8.89926207,7.1964 8.74173103,7.03874483 Z" id="Shape"></path>
        </g>
    </g>
</svg>