<?xml version="1.0" encoding="UTF-8"?>
<svg width="65px" height="65px" viewBox="0 0 65 65" version="1.1" xmlns="http://www.w3.org/2000/svg" xmlns:xlink="http://www.w3.org/1999/xlink">
    <!-- Generator: Sketch 48.1 (47250) - http://www.bohemiancoding.com/sketch -->
    <title>imc technology</title>
    <desc>Created with Sketch.</desc>
    <defs></defs>
    <g id="Page-1" stroke="none" stroke-width="1" fill="none" fill-rule="evenodd">
        <g id="imc-technology" fill="#636D90" fill-rule="nonzero">
            <path d="M36.75,48 L28.25,48 C25.9063906,48 24,49.9063906 24,52.25 L24,60.75 C24,63.0936094 25.9063906,65 28.25,65 L36.75,65 C39.0936094,65 41,63.0936094 41,60.75 L41,52.25 C41,49.9065234 39.0934766,48 36.75,48 Z M38.1665781,60.75 C38.1665781,61.5316016 37.5316016,62.1667109 36.7498672,62.1667109 L28.2498672,62.1667109 C27.4682656,62.1667109 26.8331563,61.5317344 26.8331563,60.75 L26.8331563,52.25 C26.8331563,51.4683984 27.4681328,50.8332891 28.2498672,50.8332891 L36.7498672,50.8332891 C37.5314688,50.8332891 38.1665781,51.4682656 38.1665781,52.25 L38.1665781,60.75 Z" id="Shape"></path>
            <path d="M12.75,48 L4.25,48 C1.90639062,48 0,49.9063906 0,52.25 L0,60.75 C0,63.0936094 1.90639062,65 4.25,65 L12.75,65 C15.0936094,65 17,63.0936094 17,60.75 L17,52.25 C17,49.9065234 15.0936094,48 12.75,48 Z M14.1667109,60.75 C14.1667109,61.5316016 13.5317344,62.1667109 12.75,62.1667109 L4.25,62.1667109 C3.46839844,62.1667109 2.83328906,61.5317344 2.83328906,60.75 L2.83328906,52.25 C2.83328906,51.4683984 3.46826563,50.8332891 4.25,50.8332891 L12.75,50.8332891 C13.5316016,50.8332891 14.1667109,51.4682656 14.1667109,52.25 L14.1667109,60.75 Z" id="Shape"></path>
            <path d="M60.75,48 L52.25,48 C49.9063906,48 48,49.9063906 48,52.25 L48,60.75 C48,63.0936094 49.9063906,65 52.25,65 L60.75,65 C63.0936094,65 65,63.0936094 65,60.75 L65,52.25 C65,49.9065234 63.0936094,48 60.75,48 Z M62.1667109,60.75 C62.1667109,61.5316016 61.5317344,62.1667109 60.75,62.1667109 L52.25,62.1667109 C51.4683984,62.1667109 50.8332891,61.5317344 50.8332891,60.75 L50.8332891,52.25 C50.8332891,51.4683984 51.4682656,50.8332891 52.25,50.8332891 L60.75,50.8332891 C61.5316016,50.8332891 62.1667109,51.4682656 62.1667109,52.25 L62.1667109,60.75 Z" id="Shape"></path>
            <path d="M8.33697987,43.5703125 C8.62538769,43.856725 9.003058,44 9.38072832,44 C9.75839863,44 10.1360689,43.856725 10.4244768,43.5703125 L16.3292255,37.7036 C16.9059027,37.1306375 16.9059027,36.2025125 16.3292255,35.6296875 C15.7525482,35.056725 14.8184058,35.056725 14.241867,35.6296875 L10.9268378,38.9233625 C11.6241924,27.3686875 18.0450029,26.1217 24.2738644,24.9261375 C26.823312,24.4366375 29.5292804,23.8825125 31.5235014,22.4637875 L31.5235014,38.9926625 L28.1387229,35.6296875 C27.5620457,35.056725 26.6279033,35.056725 26.0513644,35.6296875 C25.4746872,36.20265 25.4746872,37.130775 26.0513644,37.7036 L31.9561132,43.5703125 C32.2443826,43.856725 32.6221913,44 32.9998616,44 C33.3775319,44 33.7552022,43.856725 34.0436101,43.5703125 L39.9483588,37.7036 C40.525036,37.1306375 40.525036,36.2025125 39.9483588,35.6296875 C39.3716815,35.056725 38.4375391,35.056725 37.8610003,35.6296875 L34.4762218,38.9926625 L34.4762218,22.4637875 C36.4704428,23.8825125 39.1764112,24.4366375 41.7258588,24.9261375 C47.9547203,26.1217 54.3755308,27.3686875 55.0728854,38.9233625 L51.7578562,35.6296875 C51.181179,35.056725 50.2470366,35.056725 49.6704977,35.6296875 C49.0938205,36.20265 49.0938205,37.130775 49.6704977,37.7036 L55.5752465,43.5703125 C55.8635159,43.856725 56.2413246,44 56.6189949,44 C56.9966652,44 57.3743355,43.856725 57.6627433,43.5703125 L63.5674921,37.7036 C64.1441693,37.1306375 64.1441693,36.2025125 63.5674921,35.6296875 C62.9908148,35.056725 62.0566724,35.056725 61.4801336,35.6296875 L58.0217308,39.0658125 C57.2726178,24.960375 48.664115,23.2698125 42.2855139,22.045925 C37.6952073,21.1644125 35.1834022,20.534525 34.6088008,17.6001375 L53.6659978,17.6001375 C56.9224874,17.6001375 59.5707465,14.969075 59.5707465,11.733425 L59.5707465,5.8667125 C59.5707465,2.6310625 56.9224874,0 53.6659978,0 L12.3330335,0 C9.07654387,0 6.42842315,2.6310625 6.42842315,5.8667125 L6.42842315,11.733425 C6.42842315,14.9689375 9.07654387,17.6001375 12.3331719,17.6001375 L31.3911992,17.6001375 C30.8165978,20.534525 28.3047927,21.1644125 23.7144861,22.045925 C17.335885,23.2698125 8.72724381,24.9605125 7.97826919,39.0658125 L4.51986643,35.6296875 C3.94318919,35.056725 3.00904678,35.056725 2.43250793,35.6296875 C1.85583069,36.20265 1.85583069,37.130775 2.43250793,37.7036 L8.33697987,43.5703125 Z M12.3330335,14.6667125 C10.7055498,14.6667125 9.38072832,13.350425 9.38072832,11.7332875 L9.38072832,5.8667125 C9.38072832,4.2497125 10.7055498,2.933425 12.3330335,2.933425 L53.6659978,2.933425 C55.2934814,2.933425 56.6183029,4.2497125 56.6183029,5.8667125 L56.6183029,11.733425 C56.6183029,13.350425 55.2934814,14.6667125 53.6659978,14.6667125 L12.3330335,14.6667125 Z" id="Shape"></path>
            <path d="M13.5,6 C12.6709009,6 12,6.55909719 12,7.2500293 L12,9.7499707 C12,10.4409028 12.6709009,11 13.5,11 C14.3290991,11 15,10.4409028 15,9.7499707 L15,7.24991211 C15,6.55898001 14.3290991,6 13.5,6 Z" id="Shape"></path>
            <path d="M18.5,6 C17.6709009,6 17,6.55909719 17,7.2500293 L17,9.7499707 C17,10.4409028 17.6709009,11 18.5,11 C19.3290991,11 20,10.4409028 20,9.7499707 L20,7.24991211 C19.9998594,6.55898001 19.3289585,6 18.5,6 Z" id="Shape"></path>
            <path d="M25.5,6 C24.6709009,6 24,6.55909719 24,7.2500293 L24,9.7499707 C24,10.4409028 24.6709009,11 25.5,11 C26.3290991,11 27,10.4409028 27,9.7499707 L27,7.24991211 C27,6.55898001 26.3290991,6 25.5,6 Z" id="Shape"></path>
            <circle id="Oval" cx="50.5" cy="8.5" r="2.5"></circle>
            <circle id="Oval" cx="40.5" cy="8.5" r="2.5"></circle>
        </g>
    </g>
</svg>