<?xml version="1.0" encoding="UTF-8"?>
<svg width="40px" height="35px" viewBox="0 0 40 35" version="1.1" xmlns="http://www.w3.org/2000/svg" xmlns:xlink="http://www.w3.org/1999/xlink">
    <!-- Generator: Sketch 48.1 (47250) - http://www.bohemiancoding.com/sketch -->
    <title>social tlgrm</title>
    <desc>Created with Sketch.</desc>
    <defs></defs>
    <g id="Page-1" stroke="none" stroke-width="1" fill="none" fill-rule="evenodd">
        <path d="M0.7065189,16.7823729 L9.92333097,20.2394935 L13.4908023,31.7695268 C13.7190693,32.5079839 14.6176038,32.7809356 15.2140046,32.2909089 L20.3516113,28.0817975 C20.8901453,27.6408136 21.657213,27.6188381 22.2200137,28.0294047 L31.4864259,34.7904875 C32.1244267,35.2565288 33.0282946,34.9051889 33.1882948,34.1304186 L39.976437,1.31577788 C40.1511039,0.469453307 39.3236361,-0.236576486 38.5217684,0.0751003594 L0.695718886,14.7398577 C-0.237749003,15.1016494 -0.229615659,16.4298269 0.7065189,16.7823729 Z M12.9158682,18.3991797 L30.9289585,7.24969767 C31.2526922,7.04990826 31.5857593,7.48982016 31.307759,7.74897021 L16.4417395,21.6364114 C15.9192055,22.1252322 15.5821384,22.7794052 15.4866716,23.4894549 L14.9802709,27.2609323 C14.9132042,27.7644928 14.2093366,27.8144736 14.0710697,27.3271268 L12.1234672,20.4497347 C11.9004002,19.6653167 12.2254673,18.8274339 12.9158682,18.3991797 Z" id="social-tlgrm" fill="#0080ff" fill-rule="nonzero"></path>
    </g>
</svg>