<?xml version="1.0" encoding="UTF-8"?>
<svg width="71px" height="75px" viewBox="0 0 71 75" version="1.1" xmlns="http://www.w3.org/2000/svg" xmlns:xlink="http://www.w3.org/1999/xlink">
    <!-- Generator: Sketch 48.1 (47250) - http://www.bohemiancoding.com/sketch -->
    <title>imc Техподдержка</title>
    <desc>Created with Sketch.</desc>
    <defs></defs>
    <g id="Page-1" stroke="none" stroke-width="1" fill="none" fill-rule="evenodd">
        <g id="imc-Техподдержка">
            <path d="M9.01906641,42.8661856 L7.94064701,36.5246524 L5.51906641,36.5246524 C3.58606979,36.5246524 2.01906641,38.0916557 2.01906641,40.0246524 L2.01906641,47.0246524 C2.01906641,48.957649 3.58606979,50.5246524 5.51906641,50.5246524 L7.51906641,50.5246524 C8.34749354,50.5246524 9.01906641,49.8530795 9.01906641,49.0246524 L9.01906641,42.8661856 Z" id="Rectangle-3" stroke="#636D90" stroke-width="3"></path>
            <path d="M41.9656731,68.3387162 C51.4955492,66.1894147 59.1162129,59.0005176 61.8804098,49.7192794 C62.6088258,47.2735048 63,44.6824342 63,42 C63,40.0784504 62.7992686,38.2037841 62.4176311,36.3958263 C61.9297163,34.0843941 61.1461098,31.8819971 60.1082396,29.8300634 M33.6100555,15.1043255 C21.6800858,16.1506651 11.9755429,24.9556848 9.57236117,36.4434502 C9.19722295,38.2366978 9,40.095317 9,42 L9,49.1028448" id="Oval-3" stroke="#636D90" stroke-width="3"></path>
            <path d="M69.4722207,50.5 L69.2153047,36.5 L67,36.5 C65.0670034,36.5 63.5,38.0670034 63.5,40 L63.5,47 C63.5,48.9329966 65.0670034,50.5 67,50.5 L69.4722207,50.5 Z" id="Rectangle-3" stroke="#636D90" stroke-width="3" transform="translate(66.500000, 43.500000) scale(-1, 1) translate(-66.500000, -43.500000) "></path>
            <rect id="Rectangle-2" stroke="#636D90" stroke-width="3" x="29.5" y="66.5" width="13" height="7" rx="3.5"></rect>
            <circle id="Oval-4" stroke="#636D90" stroke-width="3" cx="48" cy="19" r="5"></circle>
            <path d="M58.5896382,31.0815006 L56.4538611,30.1212858 C55.5345083,30.8234349 54.5395799,31.4030845 53.4800786,31.8538828 L53.2142112,34.4338136 C53.1267311,36.1335626 51.1610441,37.1843363 48.0458504,37.1843363 C44.9221794,37.1843363 42.9572138,36.1306589 42.8769486,34.4258284 L42.6118027,31.8540643 C41.5523014,31.4034475 40.557373,30.8237979 39.6378398,30.1216487 L37.2760573,31.1836743 C35.7697762,31.9540602 33.8839937,30.7666314 32.3275693,28.0538567 C31.7658929,27.0751309 31.3640255,26.0543015 31.1962802,25.1801085 C30.845999,23.353686 31.5774048,22.5254077 32.1136489,22.1738794 L34.2119088,20.6441779 C34.1437284,20.0786838 34.1092775,19.5079267 34.1092775,18.9378956 C34.1092775,18.3584275 34.1448107,17.7787779 34.2151555,17.2047541 L32.1177974,15.67596 C30.6901581,14.7536747 30.7657337,12.5143834 32.32793,9.79253461 C33.8845348,7.07885249 35.7710388,5.89142374 37.2775003,6.66362447 L39.6620096,7.73581292 C40.5739672,7.04255634 41.5596966,6.46962151 42.608556,6.02299731 L42.8769486,3.42038143 C42.9570335,1.71591393 44.921999,0.66205504 48.0454897,0.66205504 C51.1619459,0.66205504 53.1279937,1.71355468 53.2140308,3.41439256 L53.4827841,6.02317879 C54.5314632,6.46962151 55.517373,7.0429193 56.4295109,7.7359944 L58.8096913,6.6661652 C59.3803863,6.37507002 60.4591873,6.15203014 61.8558027,7.36994766 C62.5244393,7.95322689 63.2019141,8.81362728 63.7635905,9.79271609 C65.3216382,12.5071241 65.3999194,14.7456896 63.9802165,15.6716045 L61.876365,17.2051171 C61.9467099,17.7791408 61.982243,18.3587904 61.982243,18.9380771 C61.982243,19.5088341 61.9479725,20.0797727 61.8797921,20.6441779 L63.9825613,22.1773275 C65.3999194,23.1043314 65.3207364,25.3423524 63.7634101,28.05549 C63.2020945,29.0342159 62.5244393,29.8960681 61.8558027,30.4795288 C60.63182,31.8540643 58.5896382,31.1836743 58.5896382,31.0815006 Z M59.1623173,15.1498473 L61.7095215,13.2931174 C61.6352085,12.9107374 61.4185825,12.2396215 60.9517815,11.4264061 C60.4853412,10.6133722 60.0161953,10.0890742 59.7241741,9.8331863 L56.8412987,11.1289591 C56.2614048,11.389747 55.5833889,11.28594 55.106487,10.8636342 C54.0307523,9.91086008 52.8017019,9.19637024 51.4539672,8.740672 C50.8509857,8.53668761 50.4220626,7.99732672 50.3564075,7.36069214 L50.0310176,4.20201915 C49.6648637,4.07552705 48.9789115,3.9287091 48.0454897,3.9287091 C47.1124287,3.9287091 46.4264764,4.07552705 46.0601422,4.20183767 L45.7343916,7.36069214 C45.6687364,7.99714524 45.2396329,8.53650612 44.6370122,8.74049052 C43.2883756,9.19655172 42.059686,9.9106786 40.9846727,10.8632712 C40.5077709,11.28594 39.8293942,11.3895655 39.2495003,11.1285961 L36.3669857,9.83246038 C36.0749645,10.0883483 35.6056382,10.6126463 35.1390176,11.4258616 C34.6723969,12.2388955 34.4555905,12.9100115 34.3814579,13.292573 L36.9286621,15.1493028 C37.4436223,15.5247866 37.6934367,16.1681359 37.5675374,16.7953335 C37.4268478,17.4963938 37.3556011,18.2172354 37.3556011,18.9380771 C37.3556011,19.6507521 37.4254048,20.3641531 37.5632085,21.059043 C37.687304,21.6851517 37.4374897,22.3266862 36.9237921,22.7012626 L34.3816382,24.5545443 C34.4559512,24.9369243 34.6725772,25.6080402 35.1391979,26.4208926 C35.6058186,27.2342895 36.0751449,27.7585875 36.3671661,28.0144754 L39.2278557,26.7283211 C39.8091926,26.4668073 40.4888319,26.5717032 40.9659141,26.9961867 C42.0461581,27.9578534 43.282243,28.6781506 44.6397178,29.136571 C45.2428796,29.340374 45.6721634,29.8797348 45.7378186,30.5163694 L46.060503,33.6449166 C46.4268372,33.7714087 47.1126091,33.9180452 48.0458504,33.9180452 C48.9792722,33.9180452 49.6652245,33.7712272 50.0315587,33.6447351 L50.3540626,30.5165509 C50.4197178,29.8799163 50.8488213,29.3405554 51.4518027,29.136571 C52.8096382,28.6777876 54.0457231,27.9574904 55.1256064,26.9960052 C55.6026886,26.5713402 56.2819672,26.4666258 56.8634844,26.7279581 L59.7245348,28.0139309 C60.016556,27.7578616 60.4855215,27.2337451 60.9517815,26.4208926 C61.4187629,25.6074958 61.6355693,24.9361984 61.7097019,24.5538184 L59.1675481,22.7008996 C58.6533093,22.3261418 58.403495,21.6838813 58.528312,21.0575911 C58.6659353,20.3656049 58.735739,19.6523854 58.735739,18.9380771 C58.735739,18.2174169 58.664312,17.4965752 58.5238027,16.795515 C58.3977231,16.1684989 58.6473571,15.5251495 59.1623173,15.1498473 Z" id="Shape" fill="#636D90" fill-rule="nonzero"></path>
        </g>
    </g>
</svg>