<?xml version="1.0" encoding="UTF-8"?>
<svg width="41px" height="23px" viewBox="0 0 41 23" version="1.1" xmlns="http://www.w3.org/2000/svg" xmlns:xlink="http://www.w3.org/1999/xlink">
    <!-- Generator: Sketch 48.1 (47250) - http://www.bohemiancoding.com/sketch -->
    <title>social vk</title>
    <desc>Created with Sketch.</desc>
    <defs></defs>
    <g id="Page-1" stroke="none" stroke-width="1" fill="none" fill-rule="evenodd">
        <path d="M40.7825578,20.7715245 C40.7329115,20.6663251 40.6866298,20.5790633 40.6436379,20.5091509 C39.9322903,19.2494781 38.572924,17.7033189 36.5663616,15.8702321 L36.5239678,15.8282553 L36.5027336,15.8076712 L36.481275,15.7865725 L36.4597417,15.7865725 C35.5490612,14.9329944 34.9723717,14.3590659 34.7308695,14.065228 C34.2889876,13.5054878 34.1899941,12.9389107 34.4314963,12.3648351 C34.6021181,11.931099 35.2430337,11.015107 36.3527479,9.6156094 C36.9364657,8.87392053 37.3987594,8.27948142 37.7401524,7.83163043 C40.2023541,4.61316095 41.2698241,2.55651631 40.9423381,1.66088785 L40.8151568,1.45159177 C40.7296964,1.32558773 40.5091293,1.21031683 40.1537546,1.10519094 C39.7975574,1.00028559 39.342292,0.982936147 38.7871358,1.05284854 L32.63937,1.09460483 C32.5397783,1.05990594 32.3975686,1.06314058 32.2122922,1.10519094 C32.0272402,1.14724129 31.9346768,1.16833999 31.9346768,1.16833999 L31.827683,1.22090293 L31.742746,1.28405198 C31.6715664,1.32580827 31.5932838,1.39924937 31.5078234,1.50422822 C31.4228116,1.60883951 31.3517067,1.7316089 31.2948826,1.8715072 C30.625555,3.56462211 29.8645611,5.13879038 29.0104804,6.59393851 C28.4838858,7.46163142 28.0002831,8.21361233 27.5586255,8.85032234 C27.1175661,9.4868118 26.7475367,9.95576148 26.4489113,10.2563627 C26.1498373,10.557258 25.8799229,10.7983124 25.6375234,10.9804081 C25.3954978,11.1625773 25.2107448,11.2395471 25.0828159,11.211391 C24.9545879,11.1832349 24.8338367,11.1552993 24.7195157,11.1273638 C24.5204072,11.0013597 24.360253,10.8299972 24.2395019,10.6131291 C24.1182273,10.396261 24.0365801,10.1233013 23.9938873,9.79447043 C23.9514188,9.46541905 23.9262966,9.18238782 23.9191188,8.94442104 C23.9124644,8.70674831 23.9155299,8.37056601 23.9299602,7.93682983 C23.9447644,7.50287311 23.9514188,7.20925577 23.9514188,7.05531618 C23.9514188,6.52351152 23.9619612,5.94634834 23.9831207,5.32367962 C24.004654,4.7010109 24.022075,4.20765437 24.0366549,3.84419816 C24.05116,3.48037437 24.0578892,3.09545189 24.0578892,2.68965126 C24.0578892,2.28385063 24.0327669,1.9656059 23.9831207,1.734623 C23.9340725,1.50393417 23.8587806,1.28000867 23.7595628,1.06292004 C23.6597469,0.846051949 23.5136492,0.678291617 23.3219427,0.559197954 C23.1298624,0.44025132 22.8910518,0.345858565 22.6068567,0.27572563 C21.8525172,0.107891782 20.8919662,0.0171012429 19.724755,0.0029864384 C17.077875,-0.0249491122 15.3771158,0.143105279 14.6228511,0.506929068 C14.3240013,0.660648111 14.0535636,0.870679343 13.8117623,1.13636113 C13.5555306,1.44431382 13.5197913,1.61236821 13.7047685,1.6400097 C14.5587745,1.7657932 15.1633526,2.06668848 15.5191759,2.5424015 L15.6474039,2.79448309 C15.7471451,2.97635823 15.8467368,3.2983522 15.9464032,3.76002393 C16.0459201,4.22169566 16.1101462,4.73240164 16.1384087,5.2918478 C16.2094388,6.31348029 16.2094388,7.18801005 16.1384087,7.9155106 C16.0671543,8.64330521 15.9998627,9.20988228 15.9356365,9.61568291 C15.8714104,10.0214835 15.7754076,10.3503144 15.6474039,10.6021019 C15.5191759,10.8539629 15.4338651,11.0079025 15.3910975,11.0637736 C15.3484047,11.1196447 15.3128149,11.1548582 15.2845524,11.168679 C15.0995751,11.2383708 14.9071957,11.2738784 14.7080872,11.2738784 C14.5086796,11.2738784 14.2668782,11.1758099 13.9823093,10.97982 C13.6978151,10.78383 13.4025542,10.5146195 13.0965267,10.1717474 C12.7904992,9.82880176 12.4453678,9.34956003 12.0609829,8.73394872 C11.6768971,8.1183374 11.2783809,7.39076334 10.8656587,6.55122653 L10.524191,5.94237855 C10.3107269,5.55069273 10.0191297,4.98036641 9.64910034,4.2319142 C9.27884668,3.48316792 8.95158492,2.75890202 8.66709075,2.05926351 C8.55336784,1.76542562 8.3825218,1.54172067 8.15485169,1.38778109 L8.0480075,1.32463204 C7.97697741,1.26876094 7.86295544,1.20943465 7.70653972,1.14621209 C7.54989969,1.08306304 7.38645573,1.03777804 7.21553492,1.00991601 L1.36646926,1.0516723 C0.768769805,1.0516723 0.363225415,1.18480726 0.149686554,1.45070959 L0.0642261489,1.57649308 C0.0215333305,1.6465525 0,1.75844173 0,1.91245484 C0,2.06639442 0.0426928184,2.25532696 0.128153224,2.47903191 C0.982009592,4.45216396 1.9105597,6.35508955 2.91380355,8.18810276 C3.9170474,10.021116 4.78884821,11.4976568 5.5286826,12.6164021 C6.26866653,13.7359561 7.02293124,14.7925815 7.79147674,15.7857639 C8.56002224,16.7793138 9.06874717,17.4160238 9.31765154,17.6957469 C9.56685498,17.9759845 9.76259893,18.1855012 9.90488341,18.3253995 L10.4386558,18.829048 C10.7801983,19.1649363 11.2817455,19.5672082 11.9435216,20.0358638 C12.6054472,20.5048135 13.3382533,20.9664852 14.1423139,21.4216142 C14.9465239,21.8760079 15.8821023,22.2468156 16.9495723,22.5335961 C18.0168927,22.8206706 19.0557264,22.935868 20.0662228,22.880291 L22.521172,22.880291 C23.0190555,22.8380201 23.3962626,22.6840805 23.6526438,22.4183987 L23.7375809,22.3131993 C23.794704,22.2296867 23.8481635,22.0999334 23.8975107,21.9253362 C23.9474561,21.750445 23.9722792,21.5577632 23.9722792,21.3481731 C23.9576994,20.746603 24.0042801,20.2044328 24.1107505,19.7217359 C24.2171461,19.239186 24.3384206,18.8753622 24.4740507,18.6303381 C24.609606,18.3855344 24.7625824,18.1789584 24.9328303,18.0114921 C25.103452,17.8436582 25.2250256,17.7419875 25.2963547,17.7069946 C25.3672353,17.6717811 25.423835,17.6478889 25.4665279,17.6335535 C25.8080704,17.5216643 26.2100259,17.6300248 26.6729925,17.9591497 C27.1355853,18.2879805 27.5694669,18.6940017 27.9753104,19.1765516 C28.3809296,19.6595426 28.8682707,20.2014187 29.4374086,20.8029887 C30.0069203,21.4047793 30.5048786,21.8521157 30.9316572,22.1463947 L31.3584359,22.3982557 C31.6434534,22.5663101 32.0134828,22.7202497 32.4689725,22.860148 C32.9236398,22.9999728 33.3220065,23.0349657 33.6640724,22.9650533 L39.1286784,22.8812467 C39.6691799,22.8812467 40.0897528,22.7932497 40.3880791,22.6186525 C40.6870036,22.4437613 40.8645788,22.2510795 40.9218515,22.0414893 C40.9789746,21.8316786 40.9820402,21.5936383 40.9326929,21.3275155 C40.8820747,21.0620542 40.8322041,20.8764298 40.7825578,20.7715245 Z" id="social-vk" fill="#1B4BFF" fill-rule="nonzero"></path>
    </g>
</svg>