<?xml version="1.0" encoding="UTF-8"?>
<svg width="89px" height="64px" viewBox="0 0 89 64" version="1.1" xmlns="http://www.w3.org/2000/svg" xmlns:xlink="http://www.w3.org/1999/xlink">
    <!-- Generator: Sketch 50.2 (55047) - http://www.bohemiancoding.com/sketch -->
    <title>1 1 Зарплата и управление персоналом</title>
    <desc>Created with Sketch.</desc>
    <defs></defs>
    <g id="Page-1" stroke="none" stroke-width="1" fill="none" fill-rule="evenodd">
        <g id="Artboard" transform="translate(-1997.000000, -357.000000)">
            <g id="1-1-Зарплата-и-управление-персоналом" transform="translate(1997.000000, 357.000000)">
                <path d="M69.1586454,52.0241033 L59.6869302,40.3966591 C63.4122652,36.5781394 65.661932,31.5619893 66.0356979,26.2408263 L79.2809789,26.2408263 L79.2809789,28.0183852 C75.5204897,28.7910173 72.8200815,32.0982869 72.8158387,35.9366022 C72.8168489,40.398881 76.4357111,44.0156074 80.8988803,44.0147995 C85.3620494,44.0139915 88.9794973,40.3956491 88.9786892,35.9333703 C88.9778811,32.094449 86.2756545,28.7861695 82.513549,28.0183852 L82.513549,24.6248636 C82.513549,23.7324483 81.7898574,23.008901 80.897264,23.008901 L66.0356979,23.008901 C65.7197142,18.5316745 64.0702953,14.2513934 61.2999827,10.719505 L65.5547004,6.46523715 L76.5783754,6.46523715 C77.4709688,8.98957281 80.2414834,10.3124402 82.7661206,9.41982286 C85.2909599,8.52740749 86.6140913,5.75744551 85.7212958,3.23331186 C84.8285004,0.709178198 82.0583898,-0.613891221 79.5337526,0.278524152 C78.152839,0.766544872 77.0666955,1.85267377 76.5785774,3.23310986 L64.8857604,3.23310986 C64.4570408,3.23310986 64.0461003,3.40359392 63.7430469,3.70658692 L59.1327465,8.31636659 C50.1506464,-0.332265503 35.8566255,-0.0634097169 27.2060659,8.91689871 C23.5294215,12.7338025 21.3128886,17.7222792 20.9447797,23.008699 L12.3679853,23.008699 L7.08414745,11.1267276 C9.44614601,9.88385036 10.353286,6.96218989 9.11036279,4.60066248 C7.86743959,2.23913506 4.94499419,1.33237802 2.58299563,2.5750533 C0.221199101,3.81772858 -0.685940882,6.73938904 0.55698232,9.10091646 C1.21016351,10.3419758 2.37065618,11.2382291 3.73682111,11.5563717 L9.83829717,25.2823584 C10.098115,25.865519 10.6771491,26.2410283 11.3155817,26.2406243 L20.9445777,26.2406243 C21.3167273,31.5005827 23.5229564,36.463204 27.1785891,40.2639482 L13.5339107,53.9059048 C4.71121676,52.5842494 22.7546149,57.099855 17.1446915,54.8706345 L29.5900864,42.4277222 C37.6949478,48.8079467 49.1030917,48.8537996 57.2592701,42.5392236 L65.2068285,52.2258966 C63.0222718,54.8706345 69.1586454,52.0241033 69.1586454,52.0241033 Z M85.7461191,35.9366022 C85.7461191,38.6140503 83.5752463,40.7844901 80.897264,40.7844901 C78.2192817,40.7844901 76.0484088,38.6140503 76.0484088,35.9366022 C76.0484088,33.2591541 78.2192817,31.0887142 80.897264,31.0887142 C83.5752463,31.0887142 85.7461191,33.2591541 85.7461191,35.9366022 Z M81.1298341,3.23331186 C82.0224275,3.23331186 82.7461191,3.95685913 82.7461191,4.8492745 C82.7461191,5.74168988 82.0224275,6.46523715 81.1298341,6.46523715 C80.2372406,6.46523715 79.513549,5.74168988 79.513549,4.8492745 C79.513549,3.95685913 80.2372406,3.23331186 81.1298341,3.23331186 Z M4.85044151,8.46523715 C3.95784809,8.46523715 3.23415646,7.74168988 3.23415646,6.8492745 C3.23415646,5.95685913 3.95784809,5.23331186 4.85044151,5.23331186 C5.74303493,5.23331186 6.46672656,5.95685913 6.46672656,6.8492745 C6.46672656,7.74168988 5.74303493,8.46523715 4.85044151,8.46523715 Z M32.1761425,40.3384844 L32.1761425,36.421391 C32.1761425,33.4762991 34.5642036,31.0887142 37.5098831,31.0887142 L41.0980359,31.0887142 L38.7528063,36.9514267 C38.5125859,37.5519588 38.6538089,38.238137 39.1116216,38.6950504 L42.3441917,41.9269757 C42.975351,42.5578071 43.9984594,42.5578071 44.6296187,41.9269757 L47.8621888,38.6950504 C48.3200016,38.237935 48.4612245,37.5519588 48.2210041,36.9514267 L45.8773908,31.0887142 L49.4703925,31.0887142 C52.416072,31.0887142 54.8041331,33.4762991 54.8041331,36.421391 L54.8041331,40.3384844 C48.0567492,45.2360632 38.9235264,45.2360632 32.1761425,40.3384844 Z M43.7214686,14.096867 C43.6608579,14.1978647 43.6115612,14.3049222 43.5743866,14.4166256 C42.7565464,16.8680409 38.3410577,17.7972195 35.4980123,18.0670852 C35.9315808,12.6515904 38.4804623,10.0809978 43.4903398,10.0809978 C48.0773568,10.0809978 50.601994,12.2496197 51.3244734,16.7743151 L45.9390117,13.5423898 C45.1732966,13.0834564 44.1804935,13.3317087 43.7214686,14.096867 Z M45.7189949,17.1817397 L51.4955976,20.6479796 C50.8474673,24.6038561 45.9711353,27.8567889 43.4901378,27.8567889 C39.885216,27.2429251 36.8864012,24.7436369 35.6333762,21.3089083 C38.4004562,21.0810576 43.3963933,20.2423729 45.7189949,17.1817397 Z M44.8251892,37.1631178 L43.4901378,38.4995189 L42.1550863,37.1631178 L43.4901378,33.822923 L44.8251892,37.1631178 Z M50.5419894,27.9311232 C53.0633941,25.9473271 54.6148257,22.9792077 54.8041331,19.7769757 C54.8041331,9.09223066 48.6509359,6.8492745 43.4901378,6.8492745 C38.3293396,6.8492745 32.1761425,9.09223066 32.1761425,19.7769757 C32.3640356,22.9810256 33.9156692,25.951165 36.4382861,27.9359711 C32.1539185,28.4637849 28.9373093,32.1053567 28.9435724,36.421391 L28.9435724,37.4038963 C21.8583848,29.3717539 22.6273324,17.1177072 30.6612793,10.0339329 C38.6952262,2.95015863 50.9515157,3.71895286 58.0367032,11.7510952 C64.5018434,19.0804958 64.5018434,30.0742937 58.0367032,37.4036943 L58.0367032,36.421189 C58.0453907,32.1035388 54.8281754,28.458937 50.5419894,27.9311232 Z" id="Shape" fill="#636D90" fill-rule="nonzero"></path>
                <ellipse id="Oval-7" stroke="#636D90" stroke-width="3" cx="12.5" cy="57.4993005" rx="4.5" ry="4.49930052"></ellipse>
                <ellipse id="Oval-7" stroke="#636D90" stroke-width="3" cx="69.5" cy="55.4993005" rx="4.5" ry="4.49930052"></ellipse>
            </g>
        </g>
    </g>
</svg>